<?xml version="1.0" encoding="UTF-8" standalone="no"?>
<!-- Created with Inkscape (http://www.inkscape.org/) -->

<svg
   xmlns:dc="http://purl.org/dc/elements/1.1/"
   xmlns:cc="http://creativecommons.org/ns#"
   xmlns:rdf="http://www.w3.org/1999/02/22-rdf-syntax-ns#"
   xmlns:svg="http://www.w3.org/2000/svg"
   xmlns="http://www.w3.org/2000/svg"
   xmlns:sodipodi="http://sodipodi.sourceforge.net/DTD/sodipodi-0.dtd"
   xmlns:inkscape="http://www.inkscape.org/namespaces/inkscape"
   version="1.1"
   id="svg2"
   xml:space="preserve"
   width="504.27332"
   height="182.55093"
   viewBox="0 0 504.27332 182.55093"
   sodipodi:docname="Polygon.svg"
   inkscape:version="0.92.1 r15371"><metadata
     id="metadata8"><rdf:RDF><cc:Work
         rdf:about=""><dc:format>image/svg+xml</dc:format><dc:type
           rdf:resource="http://purl.org/dc/dcmitype/StillImage" /><dc:title></dc:title></cc:Work></rdf:RDF></metadata><defs
     id="defs6"><clipPath
       clipPathUnits="userSpaceOnUse"
       id="clipPath70"><path
         d="M 0,136.914 H 378.205 V 0 H 0 Z"
         id="path68"
         inkscape:connector-curvature="0" /></clipPath></defs><sodipodi:namedview
     pagecolor="#ffffff"
     bordercolor="#666666"
     borderopacity="1"
     objecttolerance="10"
     gridtolerance="10"
     guidetolerance="10"
     inkscape:pageopacity="0"
     inkscape:pageshadow="2"
     inkscape:window-width="1920"
     inkscape:window-height="1017"
     id="namedview4"
     showgrid="false"
     fit-margin-top="0"
     fit-margin-left="0"
     fit-margin-right="0"
     fit-margin-bottom="0"
     inkscape:zoom="1.3643395"
     inkscape:cx="143.01703"
     inkscape:cy="201.85622"
     inkscape:window-x="-8"
     inkscape:window-y="-8"
     inkscape:window-maximized="1"
     inkscape:current-layer="g10" /><g
     id="g10"
     inkscape:groupmode="layer"
     inkscape:label="polygon copy"
     transform="matrix(1.3333333,0,0,-1.3333333,0,182.5512)"><g
       id="g4614"><g
         transform="translate(0,58.5099)"
         id="g12"><path
           inkscape:connector-curvature="0"
           id="path14"
           style="fill:#ffffff;fill-opacity:1;fill-rule:nonzero;stroke:none"
           d="M 0,0 39.202,-39.202 V 0 L 20.491,1.057 Z" /></g><g
         transform="translate(0,58.5099)"
         id="g16"><path
           inkscape:connector-curvature="0"
           id="path18"
           style="fill:#d3d2d2;fill-opacity:1;fill-rule:nonzero;stroke:none"
           d="M 0,0 H 39.202 L 20.111,20.151 0,39.201 Z" /></g><g
         transform="translate(0,97.7112)"
         id="g20"><path
           inkscape:connector-curvature="0"
           id="path22"
           style="fill:#a8a5a6;fill-opacity:1;fill-rule:nonzero;stroke:none"
           d="m 0,0 39.202,-39.201 1.06,20.926 L 39.202,0 22.476,1.06 Z" /></g><g
         transform="translate(39.2021,58.5105)"
         id="g24"><path
           inkscape:connector-curvature="0"
           id="path26"
           style="fill:#7c7a7a;fill-opacity:1;fill-rule:nonzero;stroke:none"
           d="m 0,0 v 39.201 l 16.703,1.06 22.498,-1.06 z" /></g><g
         transform="translate(0,97.7112)"
         id="g28"><path
           inkscape:connector-curvature="0"
           id="path30"
           style="fill:#231f20;fill-opacity:1;fill-rule:nonzero;stroke:none"
           d="M 0,0 H 39.202 L 40.26,17.869 39.202,39.202 Z" /></g><g
         transform="translate(39.2022,97.7112)"
         id="g32"><path
           inkscape:connector-curvature="0"
           id="path34"
           style="fill:#504d4e;fill-opacity:1;fill-rule:nonzero;stroke:none"
           d="M 0,0 H 39.2 L 0,39.202 Z" /></g><g
         transform="translate(39.2004,136.9134)"
         id="g36"><path
           inkscape:connector-curvature="0"
           id="path38"
           style="fill:#ee1e59;fill-opacity:1;fill-rule:nonzero;stroke:none"
           d="M 0,0 -39.2,-39.202 0.003,0 Z m 0,-117.605 v 0.002 l -39.2,39.2 z" /></g><g
         transform="translate(0,58.5099)"
         id="g40"><path
           inkscape:connector-curvature="0"
           id="path42"
           style="fill:#ff0055;fill-opacity:1;fill-rule:nonzero;stroke:none"
           d="M 0,0 39.2,-39.2 V 0 Z" /></g><g
         transform="translate(0,58.5099)"
         id="g44"><path
           inkscape:connector-curvature="0"
           id="path46"
           style="fill:#d30046;fill-opacity:1;fill-rule:nonzero;stroke:none"
           d="M 0,0 H 39.2 L 0,39.201 Z" /></g><g
         transform="translate(0,97.7112)"
         id="g48"><path
           inkscape:connector-curvature="0"
           id="path50"
           style="fill:#a70037;fill-opacity:1;fill-rule:nonzero;stroke:none"
           d="M 0,0 39.202,-39.201 V -39.199 0 Z" /></g><g
         transform="translate(78.4019,97.7111)"
         id="g52"><path
           inkscape:connector-curvature="0"
           id="path54"
           style="fill:#7b0028;fill-opacity:1;fill-rule:nonzero;stroke:none"
           d="M 0,0 H -39.2 V -39.2 Z" /></g><g
         transform="translate(39.2004,136.9134)"
         id="g56"><path
           inkscape:connector-curvature="0"
           id="path58"
           style="fill:#28000b;fill-opacity:1;fill-rule:nonzero;stroke:none"
           d="M 0,0 H 0.002 Z M -39.2,-39.202 H 0.002 v 39.2 l -0.001,0.001 z" /></g><g
         transform="translate(39.2022,97.7112)"
         id="g60"><path
           inkscape:connector-curvature="0"
           id="path62"
           style="fill:#4f001a;fill-opacity:1;fill-rule:nonzero;stroke:none"
           d="M 0,0 H 39.2 L 0,39.2 Z" /></g><g
         id="g64"><g
           clip-path="url(#clipPath70)"
           id="g66"><g
             transform="translate(104.5991,51.9118)"
             id="g72"><path
               inkscape:connector-curvature="0"
               id="path74"
               style="fill:#000000;fill-opacity:1;fill-rule:nonzero;stroke:none"
               d="m 0,0 c -1.976,-0.865 -4.355,-0.865 -5.778,-0.865 h -5.462 v 13.926 h 4.909 c 1.661,0 4.117,0 6.171,-0.87 C 1.896,11.325 3.56,9.66 3.56,6.178 3.559,2.693 1.976,0.872 0,0 m 11.002,21.926 c -3.167,2.611 -7.207,4.272 -18.045,4.272 h -19.153 v -58.562 h 14.955 v 18.355 h 5.858 c 9.103,0 13.056,1.665 17.095,5.073 3.718,3.162 6.174,9.415 6.174,15.351 0,5.938 -2.295,11.712 -6.884,15.511" /></g><g
             transform="translate(146.623,30.5427)"
             id="g76"><path
               inkscape:connector-curvature="0"
               id="path78"
               style="fill:#000000;fill-opacity:1;fill-rule:nonzero;stroke:none"
               d="m 0,0 c -5.697,0 -10.525,4.67 -10.525,11.009 v 0.076 c 0,6.405 4.828,11.079 10.525,11.079 5.701,0 10.529,-4.674 10.529,-11.079 C 10.529,4.67 5.701,0 0,0 m 0,34.351 c -15.987,0 -23.661,-12.581 -23.661,-23.267 v -0.076 c 0,-10.765 7.674,-23.353 23.661,-23.353 15.989,0 23.665,12.588 23.665,23.353 0,10.762 -7.676,23.343 -23.665,23.343" /></g><path
             inkscape:connector-curvature="0"
             id="path80"
             style="fill:#000000;fill-opacity:1;fill-rule:nonzero;stroke:none"
             d="m 174.56,78.11 h 13.142 V 19.546 H 174.56 Z" /><g
             transform="translate(222.2881,63.4694)"
             id="g82"><path
               inkscape:connector-curvature="0"
               id="path84"
               style="fill:#000000;fill-opacity:1;fill-rule:nonzero;stroke:none"
               d="M 0,0 -8.388,-25.482 -17.334,0 H -31.339 L -15.035,-41.708 -22,-58.565 H -8.077 L 13.929,0 Z" /></g><g
             transform="translate(267.165,33.3962)"
             id="g86"><path
               inkscape:connector-curvature="0"
               id="path88"
               style="fill:#000000;fill-opacity:1;fill-rule:nonzero;stroke:none"
               d="m 0,0 c -1.902,-1.9 -4.433,-3.009 -7.677,-3.009 -5.462,0 -10.525,4.274 -10.525,11.239 v 0.078 c 0,6.412 4.982,10.919 10.603,10.919 3.483,0 6.173,-1.265 7.916,-3.401 C 2.138,13.771 3.085,10.846 3.085,7.595 2.927,4.507 1.819,1.899 0,0 m 3.084,25.957 c -2.53,3.799 -7.361,5.54 -12.267,5.54 -11.395,0 -22.159,-8.627 -22.159,-23.664 0,-14.083 10.211,-23.108 22.159,-23.108 6.885,0 10.686,3.721 12.189,6.251 v -2.612 c 0,-7.592 -5.697,-10.682 -10.684,-10.682 -0.396,0 -1.898,0 -3.485,0.55 -1.504,0.561 -3.245,1.666 -4.194,3.805 h -15.196 c 0.875,-6.25 6.65,-15.433 21.926,-15.433 10.841,0 18.834,4.827 22.236,10.363 2.138,3.724 2.614,7.917 2.614,14.485 v 38.62 H 3.083 v -4.115 z" /></g><g
             transform="translate(311.166,30.5427)"
             id="g90"><path
               inkscape:connector-curvature="0"
               id="path92"
               style="fill:#000000;fill-opacity:1;fill-rule:nonzero;stroke:none"
               d="m 0,0 c -5.694,0 -10.522,4.67 -10.522,11.009 v 0.076 c 0,6.405 4.828,11.079 10.522,11.079 5.704,0 10.532,-4.674 10.532,-11.079 C 10.532,4.67 5.704,0 0,0 m 0,34.351 c -15.984,0 -23.658,-12.581 -23.658,-23.267 v -0.076 c 0,-10.765 7.674,-23.353 23.658,-23.353 15.991,0 23.665,12.588 23.665,23.353 0,10.762 -7.674,23.343 -23.665,23.343" /></g><g
             transform="translate(361.8994,64.9724)"
             id="g94"><path
               inkscape:connector-curvature="0"
               id="path96"
               style="fill:#000000;fill-opacity:1;fill-rule:nonzero;stroke:none"
               d="m 0,0 c -7.837,0 -10.602,-4.033 -12.106,-6.17 v 4.667 h -12.268 v -43.923 h 13.14 v 23.901 c 0,4.508 1.029,9.175 7.515,9.175 5.862,0 6.89,-4.27 6.89,-9.092 v -23.984 h 13.136 v 27.465 C 16.306,-12.027 14.8,0 0,0" /></g></g></g></g></g></svg>