<svg xmlns="http://www.w3.org/2000/svg" viewBox="0 0 195 22.46"><defs><style>.cls-1{fill:#404041;}</style></defs><title>logo-text</title><g id="Layer_2" data-name="Layer 2"><g id="Layer_3" data-name="Layer 3"><path class="cls-1" d="M3.92,16.94a1.79,1.79,0,0,1,.61,1.46,1.9,1.9,0,0,1-.61,1.52,2.48,2.48,0,0,1-1.72.54H.59v1.93H0v-6H2.2A2.53,2.53,0,0,1,3.92,16.94Zm-.42,2.6A1.38,1.38,0,0,0,4,18.42a1.32,1.32,0,0,0-.47-1.09A2,2,0,0,0,2.18,17H.59v3H2.18A2,2,0,0,0,3.5,19.54Z"/><path class="cls-1" d="M9.08,17a3.13,3.13,0,0,0-.82-.12,1.79,1.79,0,0,0-1,.24.74.74,0,0,0-.37.66.89.89,0,0,0,.2.6,1.43,1.43,0,0,0,.51.36,7.64,7.64,0,0,0,.82.3,7.8,7.8,0,0,1,1,.35,1.86,1.86,0,0,1,.64.51,1.54,1.54,0,0,1,0,1.73,1.8,1.8,0,0,1-.76.57,3,3,0,0,1-1.12.2,3.29,3.29,0,0,1-1.22-.25,3.58,3.58,0,0,1-1-.66L6.19,21a2.86,2.86,0,0,0,.93.62,2.63,2.63,0,0,0,1,.22,1.85,1.85,0,0,0,1.09-.28.87.87,0,0,0,.4-.75.89.89,0,0,0-.21-.61,1.34,1.34,0,0,0-.5-.37l-.84-.3a7.8,7.8,0,0,1-1-.35,1.61,1.61,0,0,1-.63-.5,1.35,1.35,0,0,1-.25-.86,1.28,1.28,0,0,1,.25-.79,1.66,1.66,0,0,1,.72-.53,2.93,2.93,0,0,1,1.07-.18,3.38,3.38,0,0,1,1,.15,3.14,3.14,0,0,1,.87.38l-.26.5A3.19,3.19,0,0,0,9.08,17Z"/><path class="cls-1" d="M16.94,16.42l-2.3,3.84v2.13h-.59V20.26l-2.33-3.84h.61l2,3.21,2-3.21Z"/><path class="cls-1" d="M21.93,17.09a2.53,2.53,0,0,0-1-.2,2.47,2.47,0,0,0-1.26.33,2.49,2.49,0,0,0-1.26,2.17,2.48,2.48,0,0,0,.34,1.26,2.59,2.59,0,0,0,.92.91,2.48,2.48,0,0,0,2.23.14,2.65,2.65,0,0,0,.84-.53l.36.39a3.62,3.62,0,0,1-1,.65,3,3,0,0,1-1.17.23A3,3,0,0,1,19.37,22a3.06,3.06,0,0,1-1.12-1.11,2.88,2.88,0,0,1-.41-1.53,3,3,0,0,1,.41-1.52,3.06,3.06,0,0,1,1.14-1.09A3,3,0,0,1,21,16.37a3.15,3.15,0,0,1,1.17.22,3.63,3.63,0,0,1,1,.63l-.35.41A2.7,2.7,0,0,0,21.93,17.09Z"/><path class="cls-1" d="M25.26,16.42h.59v2.73h3.74V16.42h.59v6h-.59V19.68H25.85v2.71h-.59Z"/><path class="cls-1" d="M37,16.78a3.11,3.11,0,0,1,1.13,1.09,3,3,0,0,1,0,3.05A3.08,3.08,0,0,1,37,22a3.21,3.21,0,0,1-3.14,0,3,3,0,0,1-1.13-1.11,3,3,0,0,1,0-3.05A3.19,3.19,0,0,1,37,16.78Zm-2.83.45a2.59,2.59,0,0,0-.92.91,2.37,2.37,0,0,0-.34,1.25,2.44,2.44,0,0,0,.34,1.27,2.62,2.62,0,0,0,.92.92,2.53,2.53,0,0,0,1.27.33,2.46,2.46,0,0,0,1.25-.33,2.62,2.62,0,0,0,.92-.92A2.44,2.44,0,0,0,38,19.39a2.37,2.37,0,0,0-.34-1.25,2.59,2.59,0,0,0-.92-.91,2.46,2.46,0,0,0-1.25-.33A2.53,2.53,0,0,0,34.19,17.23Z"/><path class="cls-1" d="M40.72,16.42h.59v5.44h2.63v.53H40.72Z"/><path class="cls-1" d="M50.07,16.78a3.11,3.11,0,0,1,1.13,1.09,3,3,0,0,1,0,3.05A3.08,3.08,0,0,1,50.07,22a3.21,3.21,0,0,1-3.14,0,3.08,3.08,0,0,1-1.13-1.11,3,3,0,0,1,0-3.05,3.11,3.11,0,0,1,1.13-1.09,3.21,3.21,0,0,1,3.14,0Zm-2.83.45a2.59,2.59,0,0,0-.92.91A2.37,2.37,0,0,0,46,19.39a2.44,2.44,0,0,0,.34,1.27,2.62,2.62,0,0,0,.92.92,2.53,2.53,0,0,0,1.27.33,2.49,2.49,0,0,0,1.25-.33,2.62,2.62,0,0,0,.92-.92A2.44,2.44,0,0,0,51,19.39a2.37,2.37,0,0,0-.34-1.25,2.59,2.59,0,0,0-.92-.91,2.49,2.49,0,0,0-1.25-.33A2.53,2.53,0,0,0,47.24,17.23Z"/><path class="cls-1" d="M57.85,19.47h.52v2.19a3.46,3.46,0,0,1-1,.58,3.7,3.7,0,0,1-1.18.2A3,3,0,0,1,54.62,22a3.08,3.08,0,0,1-1.13-1.11,3,3,0,0,1,0-3.05,3.19,3.19,0,0,1,2.72-1.5,3.36,3.36,0,0,1,1.17.21,3.11,3.11,0,0,1,1,.6l-.34.42a2.77,2.77,0,0,0-.85-.53,2.8,2.8,0,0,0-1-.18,2.48,2.48,0,0,0-1.28.34,2.59,2.59,0,0,0-.92.91,2.37,2.37,0,0,0-.34,1.25A2.42,2.42,0,0,0,54,20.66a2.59,2.59,0,0,0,3.06,1.11,2.85,2.85,0,0,0,.78-.39Z"/><path class="cls-1" d="M61,16.42h.59v6H61Z"/><path class="cls-1" d="M66.8,17a3.13,3.13,0,0,0-.82-.12,1.81,1.81,0,0,0-1,.24.74.74,0,0,0-.37.66.84.84,0,0,0,.2.6,1.43,1.43,0,0,0,.51.36,7.64,7.64,0,0,0,.82.3,8.71,8.71,0,0,1,1,.35,1.92,1.92,0,0,1,.63.51,1.54,1.54,0,0,1,0,1.73,1.8,1.8,0,0,1-.76.57,3,3,0,0,1-1.12.2,3.2,3.2,0,0,1-1.21-.25,3.32,3.32,0,0,1-1-.66l.27-.49a3.09,3.09,0,0,0,.93.62,2.63,2.63,0,0,0,1,.22A1.85,1.85,0,0,0,67,21.6a.85.85,0,0,0,.4-.75.89.89,0,0,0-.21-.61,1.34,1.34,0,0,0-.5-.37l-.84-.3a7.8,7.8,0,0,1-1-.35,1.58,1.58,0,0,1-.62-.5,1.3,1.3,0,0,1-.26-.86,1.23,1.23,0,0,1,.26-.79,1.62,1.62,0,0,1,.71-.53A3,3,0,0,1,66,16.36a3.38,3.38,0,0,1,1,.15,3.14,3.14,0,0,1,.87.38l-.26.5A3,3,0,0,0,66.8,17Z"/><path class="cls-1" d="M69.49,16.41H74V17h-2v5.44h-.59V17h-2Z"/><path class="cls-1" d="M75.59,21.79a.41.41,0,0,1,0,.56.39.39,0,0,1-.54,0,.39.39,0,0,1-.11-.28.41.41,0,0,1,.11-.28.39.39,0,0,1,.54,0Z"/><path class="cls-1" d="M85.61,22.39,84.9,20.8H81.58l-.7,1.59h-.63l2.69-6h.62l2.69,6Zm-3.8-2.12h2.86L83.23,17Z"/><path class="cls-1" d="M88.87,21.4a2.14,2.14,0,0,0,2.77,0,2,2,0,0,0,.5-1.43V16.41h.59V20a2.46,2.46,0,0,1-.66,1.82,2.86,2.86,0,0,1-3.63,0A2.46,2.46,0,0,1,87.78,20V16.41h.59V20A1.93,1.93,0,0,0,88.87,21.4Z"/><path class="cls-1" d="M94.48,16.41H99V17H97v5.44h-.59V17h-2Z"/><path class="cls-1" d="M100.9,16.42h.59v2.73h3.74V16.42h.59v6h-.59V19.68h-3.74v2.71h-.59Z"/><path class="cls-1" d="M112.66,16.78a3.11,3.11,0,0,1,1.13,1.09,3,3,0,0,1,0,3.05A3.08,3.08,0,0,1,112.66,22a3.21,3.21,0,0,1-3.14,0,3.08,3.08,0,0,1-1.13-1.11,3,3,0,0,1,0-3.05,3.11,3.11,0,0,1,1.13-1.09,3.21,3.21,0,0,1,3.14,0Zm-2.82.45a2.54,2.54,0,0,0-.93.91,2.47,2.47,0,0,0-.34,1.25,2.51,2.51,0,0,0,1.27,2.19,2.55,2.55,0,0,0,2.51,0,2.54,2.54,0,0,0,.92-.92,2.44,2.44,0,0,0,.34-1.27,2.37,2.37,0,0,0-.34-1.25,2.51,2.51,0,0,0-.92-.91,2.55,2.55,0,0,0-2.51,0Z"/><path class="cls-1" d="M120.31,22.39,119,20.45H117v1.93h-.58v-6h2.22a2.55,2.55,0,0,1,1.73.52,1.8,1.8,0,0,1,.62,1.46,2,2,0,0,1-.36,1.24,1.86,1.86,0,0,1-1,.69L121,22.39Zm-1.72-2.46a2,2,0,0,0,1.32-.39,1.37,1.37,0,0,0,.46-1.12,1.31,1.31,0,0,0-.46-1.09,2,2,0,0,0-1.32-.38H117v3Z"/><path class="cls-1" d="M123.56,21.79a.41.41,0,0,1,0,.56.39.39,0,0,1-.27.11.37.37,0,0,1-.27-.11.39.39,0,0,1-.11-.28.41.41,0,0,1,.11-.28.37.37,0,0,1,.27-.11A.39.39,0,0,1,123.56,21.79Z"/><path class="cls-1" d="M132.63,17.09a2.56,2.56,0,0,0-1-.2,2.47,2.47,0,0,0-1.26.33,2.49,2.49,0,0,0-1.26,2.17,2.38,2.38,0,0,0,.34,1.26,2.51,2.51,0,0,0,.92.91,2.48,2.48,0,0,0,1.26.34,2.55,2.55,0,0,0,1-.2,2.65,2.65,0,0,0,.84-.53l.36.39a3.62,3.62,0,0,1-1,.65A3.1,3.1,0,0,1,129,20.92a3,3,0,0,1,0-3.05,3.11,3.11,0,0,1,1.13-1.09,3,3,0,0,1,1.56-.41,3.17,3.17,0,0,1,1.18.22,3.63,3.63,0,0,1,1,.63l-.35.41A2.7,2.7,0,0,0,132.63,17.09Z"/><path class="cls-1" d="M139.91,16.78A3,3,0,0,1,141,17.87a3,3,0,0,1,0,3.05A2.94,2.94,0,0,1,139.91,22a3,3,0,0,1-1.56.41,3.15,3.15,0,0,1-2.71-1.52,3,3,0,0,1,0-3.05,3.06,3.06,0,0,1,1.14-1.09,3,3,0,0,1,1.57-.41A3,3,0,0,1,139.91,16.78Zm-2.82.45a2.44,2.44,0,0,0-.92.91,2.38,2.38,0,0,0-.35,1.25,2.56,2.56,0,0,0,1.27,2.19,2.52,2.52,0,0,0,1.26.33,2.46,2.46,0,0,0,1.25-.33,2.51,2.51,0,0,0,1.27-2.19,2.47,2.47,0,0,0-.34-1.25,2.54,2.54,0,0,0-.93-.91,2.46,2.46,0,0,0-1.25-.33A2.52,2.52,0,0,0,137.09,17.23Z"/><path class="cls-1" d="M148,16.42h.58v6h-.62l-3.7-5.06v5.06h-.59v-6h.62L148,21.48Z"/><path class="cls-1" d="M153.79,17a3.13,3.13,0,0,0-.82-.12,1.81,1.81,0,0,0-1,.24.74.74,0,0,0-.37.66.89.89,0,0,0,.2.6,1.43,1.43,0,0,0,.51.36,7.64,7.64,0,0,0,.82.3,8.71,8.71,0,0,1,1,.35,1.82,1.82,0,0,1,.63.51,1.54,1.54,0,0,1,0,1.73,1.8,1.8,0,0,1-.76.57,3,3,0,0,1-1.12.2,3.2,3.2,0,0,1-1.21-.25,3.32,3.32,0,0,1-1-.66l.27-.49a3.09,3.09,0,0,0,.93.62,2.63,2.63,0,0,0,1,.22A1.85,1.85,0,0,0,154,21.6a.85.85,0,0,0,.4-.75.93.93,0,0,0-.2-.61,1.46,1.46,0,0,0-.51-.37l-.84-.3a8.45,8.45,0,0,1-1-.35,1.58,1.58,0,0,1-.62-.5,1.36,1.36,0,0,1-.26-.86,1.29,1.29,0,0,1,.26-.79,1.62,1.62,0,0,1,.71-.53,3,3,0,0,1,1.07-.18,3.33,3.33,0,0,1,1,.15,3.14,3.14,0,0,1,.87.38l-.26.5A3,3,0,0,0,153.79,17Z"/><path class="cls-1" d="M158.28,21.4a2.14,2.14,0,0,0,2.77,0,2,2,0,0,0,.5-1.43V16.41h.59V20a2.46,2.46,0,0,1-.66,1.82,2.86,2.86,0,0,1-3.63,0,2.46,2.46,0,0,1-.66-1.82V16.41h.59V20A2,2,0,0,0,158.28,21.4Z"/><path class="cls-1" d="M164.74,16.42h.58v5.44H168v.53h-3.22Z"/><path class="cls-1" d="M169.13,16.41h4.54V17h-2v5.44h-.59V17h-2Z"/><path class="cls-1" d="M179.46,22.39l-.71-1.59h-3.31l-.71,1.59h-.63l2.69-6h.62l2.69,6Zm-3.79-2.12h2.85L177.09,17Z"/><path class="cls-1" d="M186.27,16.42h.58v6h-.62l-3.7-5.06v5.06h-.59v-6h.62l3.71,5.06Z"/><path class="cls-1" d="M188.75,16.41h4.54V17h-2v5.44h-.59V17h-2Z"/><path class="cls-1" d="M194.85,21.79a.39.39,0,1,1-.54.56.39.39,0,0,1-.11-.28.41.41,0,0,1,.11-.28.39.39,0,0,1,.54,0Z"/><path class="cls-1" d="M8.22,1.69a5,5,0,0,1,1.57,4,5.3,5.3,0,0,1-1.52,4,6.44,6.44,0,0,1-4.66,1.48H0V.26H3.73A6.44,6.44,0,0,1,8.22,1.69Zm-.28,4Q7.94,2,3.67,2H1.83V9.41h2a4.43,4.43,0,0,0,3-.94A3.58,3.58,0,0,0,7.94,5.69Z"/><path class="cls-1" d="M22.39,3.79A3.15,3.15,0,0,1,20,7.18l2.84,4H20.55L18,7.48H15.55v3.65H13.71V.26h4a5.84,5.84,0,0,1,3.56.84A3.2,3.2,0,0,1,22.39,3.79ZM20,5.33a1.93,1.93,0,0,0,.56-1.54,1.69,1.69,0,0,0-.58-1.47,3.87,3.87,0,0,0-2.05-.39H15.55V5.81h2.28A3.4,3.4,0,0,0,20,5.33Z"/><path class="cls-1" d="M26.44,10.91a1.09,1.09,0,0,1-.34-.82,1.14,1.14,0,0,1,1.15-1.15,1.16,1.16,0,0,1,.83.33,1.11,1.11,0,0,1,.34.82,1.09,1.09,0,0,1-.34.82,1.14,1.14,0,0,1-.83.35A1.08,1.08,0,0,1,26.44,10.91Z"/><path class="cls-1" d="M47,3.79a3.14,3.14,0,0,1-2.35,3.39l2.85,4H45.15l-2.6-3.65H40.14v3.65H38.31V.26h4a5.86,5.86,0,0,1,3.56.84A3.23,3.23,0,0,1,47,3.79ZM44.54,5.33a1.93,1.93,0,0,0,.56-1.54,1.69,1.69,0,0,0-.57-1.47,3.92,3.92,0,0,0-2.06-.39H40.14V5.81h2.29A3.36,3.36,0,0,0,44.54,5.33Z"/><path class="cls-1" d="M52.72,8.66l-1.09,2.47h-2L54.46.26h2l4.79,10.87h-2L58.16,8.66ZM57.41,7l-2-4.47L53.47,7Z"/><path class="cls-1" d="M69.23,9.47a3.85,3.85,0,0,0,1.63-.32,5.46,5.46,0,0,0,1.43-1l1.18,1.21a5.42,5.42,0,0,1-4.19,1.92A5.59,5.59,0,0,1,65.2,9.67a5.34,5.34,0,0,1-1.63-4,5.38,5.38,0,0,1,1.66-4A5.72,5.72,0,0,1,69.41,0a5.46,5.46,0,0,1,4.22,1.87L72.46,3.14A5.14,5.14,0,0,0,71,2.1a4,4,0,0,0-1.62-.3A3.87,3.87,0,0,0,66.6,2.87a3.6,3.6,0,0,0-1.12,2.72,3.77,3.77,0,0,0,1.11,2.77A3.61,3.61,0,0,0,69.23,9.47Z"/><path class="cls-1" d="M77.27,11.13V.26H79.1V5h5.4V.26h1.83V11.13H84.5V6.68H79.1v4.45Z"/><path class="cls-1" d="M98.53.26V2H92.74V4.87h5.2V6.5h-5.2V9.41h6v1.72H90.9V.26Z"/><path class="cls-1" d="M102.62,11.13V.26h1.84V9.39h5v1.74Z"/><path class="cls-1" d="M118.79.26h1.84V5.57l5-5.31h2.33L123.56,5,128,11.13h-2.17l-3.61-4.76-1.58,1.71v3.05h-1.84Z"/><path class="cls-1" d="M139.9,9.63a5.95,5.95,0,0,1-8.14,0,5.37,5.37,0,0,1-1.65-4,5.37,5.37,0,0,1,1.65-4,5.95,5.95,0,0,1,8.14,0,5.37,5.37,0,0,1,1.65,4A5.37,5.37,0,0,1,139.9,9.63Zm-1.34-6.8a3.82,3.82,0,0,0-5.46,0A3.88,3.88,0,0,0,132,5.62a3.88,3.88,0,0,0,1.11,2.79,3.82,3.82,0,0,0,5.46,0,3.88,3.88,0,0,0,1.11-2.79A3.88,3.88,0,0,0,138.56,2.83Z"/><path class="cls-1" d="M148.7,8.08,151.13.26h1.65l2.42,7.82L157.94.26h2l-3.79,10.87H154.3L152,3.68h-.12l-2.28,7.45h-1.82L144,.26h2Z"/><path class="cls-1" d="M170.79.26V2H165V4.87h5.2V6.5H165V9.41h6v1.72h-7.82V.26Z"/><path class="cls-1" d="M183.56,3.79a3.14,3.14,0,0,1-2.35,3.39l2.85,4h-2.34l-2.59-3.65h-2.41v3.65h-1.84V.26h4.05a5.88,5.88,0,0,1,3.56.84A3.23,3.23,0,0,1,183.56,3.79Zm-2.44,1.54a1.93,1.93,0,0,0,.56-1.54,1.66,1.66,0,0,0-.58-1.47,3.87,3.87,0,0,0-2-.39h-2.33V5.81H179A3.4,3.4,0,0,0,181.12,5.33Z"/><path class="cls-1" d="M191.71,1.94v9.19h-1.84V1.94h-3.3V.26H195V1.94Z"/></g></g></svg>