<svg xmlns="http://www.w3.org/2000/svg" viewBox="0 0 38.45 38.45"><defs><style>.cls-1{fill:#404041;}.cls-2{fill:#fff;}</style></defs><title>logo</title><g id="Layer_2" data-name="Layer 2"><g id="Layer_3" data-name="Layer 3"><path class="cls-1" d="M38.45,19.22A19.23,19.23,0,1,0,19.23,38.45,19.23,19.23,0,0,0,38.45,19.22Z"/><path class="cls-2" d="M23,27.39H15.37V27h2v-8H16.11a8.19,8.19,0,0,0-1.57.18,1.93,1.93,0,0,0-1,.63,2.91,2.91,0,0,0-.58,1.34,11.77,11.77,0,0,0-.18,2.29,12.48,12.48,0,0,1-.13,1.8,3.86,3.86,0,0,1-.49,1.4,2.4,2.4,0,0,1-1,.9,3.45,3.45,0,0,1-1.57.32A7.31,7.31,0,0,1,8.1,27.6,3.36,3.36,0,0,1,6.69,27l.16-.36a1.93,1.93,0,0,0,.43.22,1.23,1.23,0,0,0,.43.09,1.4,1.4,0,0,0,.6-.11.92.92,0,0,0,.41-.54A5.17,5.17,0,0,0,8.94,25C9,24.5,9,23.77,9,22.83q.08-3.75,5.25-4.2v-.05a12.24,12.24,0,0,1-1.89-.29,7.08,7.08,0,0,1-1.8-.69,4.12,4.12,0,0,1-1.35-1.2,3,3,0,0,1-.54-1.81,3,3,0,0,1,.7-2.07,4.66,4.66,0,0,1,1.74-1.19,7.91,7.91,0,0,1,2.23-.53c.8-.08,1.52-.12,2.17-.12H23v.43H21.07V27H23ZM17.37,11.11H15.63a8.33,8.33,0,0,0-1.31.09,1.78,1.78,0,0,0-.92.41,2.07,2.07,0,0,0-.53,1,6.77,6.77,0,0,0-.18,1.74,10.43,10.43,0,0,0,.11,1.89,2.66,2.66,0,0,0,.51,1.26,2.27,2.27,0,0,0,1,.72,6.21,6.21,0,0,0,1.69.29h1.33Z"/><path class="cls-2" d="M21.08,11.11v7.38h1.33a6.63,6.63,0,0,0,1.69-.29c1.73-.58,1.7-3.12,1.7-4.58,0-3,3.94-2.94,3.94-2.94v3.56c0,.71-.08,3.38-3.68,4a17.8,17.8,0,0,1-1.89.29v.05q5.17.45,5.25,4.2c0,.94,0,1.67.09,2.21a4.25,4.25,0,0,0,.23,1.22.88.88,0,0,0,.4.54,1.39,1.39,0,0,0,.61.11,1.22,1.22,0,0,0,.42-.09,1.93,1.93,0,0,0,.43-.22l.16.36a3.36,3.36,0,0,1-1.41.64,7.31,7.31,0,0,1-1.48.17,3.45,3.45,0,0,1-1.57-.32,2.4,2.4,0,0,1-1-.9,3.86,3.86,0,0,1-.49-1.4,12.48,12.48,0,0,1-.13-1.8,11.77,11.77,0,0,0-.18-2.29A2.91,2.91,0,0,0,25,19.72a1.93,1.93,0,0,0-1-.63,8.19,8.19,0,0,0-1.57-.18H21.08V27h2v.43H15.46V27h1.92V11.11H15.46v-.43"/></g></g></svg>